<svg width="43" height="25" viewBox="0 0 43 25" fill="none" xmlns="http://www.w3.org/2000/svg">
<g clip-path="url(#clip0)">
<path d="M0.355484 20.1935C0.355453 20.1607 0.368107 20.1292 0.390805 20.1055C0.413503 20.0818 0.444484 20.0678 0.477291 20.0664H1.9944C2.62291 20.0664 3.22567 20.3155 3.67009 20.759C4.11451 21.2025 4.36419 21.804 4.36419 22.4311C4.36419 23.0583 4.11451 23.6598 3.67009 24.1032C3.22567 24.5467 2.62291 24.7958 1.9944 24.7958H0.477291C0.444163 24.7944 0.412904 24.7801 0.390157 24.7561C0.36741 24.732 0.354972 24.7 0.355484 24.6669V20.1935ZM1.93349 24.3281C3.04087 24.3281 3.82342 23.538 3.82342 22.4238C3.83512 22.1724 3.79435 21.9214 3.70369 21.6866C3.61303 21.4518 3.47445 21.2383 3.29675 21.0598C3.11905 20.8813 2.90611 20.7415 2.67143 20.6495C2.43675 20.5574 2.18546 20.515 1.93349 20.525H0.872258V24.3281H1.93349Z" fill="white"/>
<path d="M10.6152 20.1935C10.6152 20.1598 10.6287 20.1275 10.6525 20.1036C10.6764 20.0798 10.7088 20.0664 10.7426 20.0664H13.4114C13.4451 20.0664 13.4775 20.0798 13.5014 20.1036C13.5253 20.1275 13.5387 20.1598 13.5387 20.1935V20.3905C13.5387 20.4242 13.5253 20.4566 13.5014 20.4804C13.4775 20.5042 13.4451 20.5176 13.4114 20.5176H11.1357V22.1751H13.0792C13.1128 22.176 13.1449 22.1897 13.1689 22.2133C13.1929 22.2368 13.207 22.2686 13.2084 22.3022V22.4993C13.2084 22.5161 13.205 22.5328 13.1985 22.5483C13.192 22.5639 13.1824 22.578 13.1704 22.5898C13.1584 22.6016 13.1441 22.6109 13.1285 22.6172C13.1128 22.6235 13.096 22.6266 13.0792 22.6263H11.1357V24.3502H13.4114C13.4283 24.3502 13.445 24.3535 13.4605 24.36C13.4761 24.3665 13.4902 24.376 13.5021 24.388C13.5139 24.4 13.5233 24.4143 13.5296 24.4299C13.5359 24.4455 13.539 24.4622 13.5387 24.4791V24.6743C13.539 24.6911 13.5359 24.7079 13.5296 24.7235C13.5233 24.7391 13.5139 24.7533 13.5021 24.7653C13.4902 24.7773 13.4761 24.7869 13.4605 24.7934C13.445 24.7999 13.4283 24.8032 13.4114 24.8032H10.7426C10.7257 24.8032 10.709 24.7999 10.6934 24.7934C10.6779 24.7869 10.6637 24.7773 10.6519 24.7653C10.64 24.7533 10.6307 24.7391 10.6244 24.7235C10.6181 24.7079 10.615 24.6911 10.6152 24.6743V20.1935Z" fill="white"/>
<path d="M18.9961 20.081C18.9975 20.048 19.0118 20.0168 19.036 19.9941C19.0601 19.9714 19.0921 19.959 19.1253 19.9595H19.2268C19.2481 19.9575 19.2696 19.9615 19.2888 19.9709C19.308 19.9803 19.3242 19.9948 19.3357 20.0129L22.3478 23.757H22.3625V20.1547C22.3625 20.121 22.3759 20.0887 22.3998 20.0648C22.4237 20.041 22.4561 20.0276 22.4899 20.0276H22.728C22.7615 20.0289 22.7933 20.0427 22.8172 20.0662C22.8411 20.0897 22.8553 20.1213 22.8572 20.1547V24.7018C22.8557 24.7349 22.8414 24.7661 22.8173 24.7888C22.7932 24.8115 22.7611 24.8239 22.728 24.8234H22.6726C22.6515 24.8252 22.6304 24.8212 22.6115 24.8117C22.5926 24.8023 22.5767 24.7879 22.5655 24.77L19.5 20.9614V24.6447C19.5 24.6789 19.4863 24.7117 19.4621 24.7359C19.4379 24.7601 19.405 24.7736 19.3708 24.7736H19.1308C19.0969 24.7727 19.0645 24.7588 19.0405 24.7349C19.0165 24.7109 19.0026 24.6786 19.0016 24.6447L18.9961 20.081Z" fill="white"/>
<path d="M30.5098 20.1935C30.5111 20.1602 30.525 20.1287 30.5486 20.1051C30.5722 20.0816 30.6038 20.0678 30.6371 20.0664H30.9084C30.9421 20.0673 30.9741 20.0809 30.9981 20.1045C31.0221 20.1281 31.0362 20.1599 31.0376 20.1935V24.6669C31.0367 24.7008 31.0228 24.7331 30.9987 24.7571C30.9747 24.781 30.9424 24.7949 30.9084 24.7959H30.6371C30.6035 24.7945 30.5716 24.7804 30.548 24.7565C30.5243 24.7325 30.5107 24.7005 30.5098 24.6669V20.1935Z" fill="white"/>
<path d="M38.3384 20.092C38.3465 20.0653 38.3628 20.0419 38.385 20.0251C38.4072 20.0082 38.4341 19.9988 38.462 19.998H38.5691C38.5934 19.9983 38.6171 20.0054 38.6377 20.0184C38.6582 20.0314 38.6747 20.0499 38.6853 20.0717L40.0253 23.7956H40.0585L41.3726 20.0791C41.3825 20.0571 41.3986 20.0385 41.4189 20.0254C41.4392 20.0123 41.4628 20.0054 41.487 20.0054H41.5959C41.6234 20.0065 41.65 20.0162 41.6718 20.033C41.6936 20.0498 41.7097 20.073 41.7177 20.0993L42.5833 24.6336C42.6036 24.7275 42.563 24.7956 42.4615 24.7956H42.1902C42.1627 24.7934 42.1365 24.7831 42.1148 24.7661C42.0931 24.749 42.077 24.726 42.0684 24.6999L41.4759 21.2209H41.4482L40.2024 24.7883C40.1916 24.8096 40.1753 24.8276 40.1552 24.8406C40.1351 24.8535 40.1119 24.8609 40.088 24.8619H39.9643C39.9406 24.8604 39.9176 24.8528 39.8976 24.8399C39.8776 24.827 39.8612 24.8092 39.8499 24.7883L38.5912 21.2209H38.5635L37.9692 24.6999C37.9615 24.7265 37.9456 24.7501 37.9238 24.7673C37.9019 24.7845 37.8752 24.7944 37.8474 24.7956H37.5761C37.4746 24.7956 37.434 24.7275 37.4543 24.6336L38.3384 20.092Z" fill="white"/>
<path d="M0.378906 0.621094H7.23358V2.97108H2.97017V7.55503H6.31445V9.90502H2.97017V17.0747H0.38629L0.378906 0.621094Z" fill="white"/>
<path d="M8.48047 0.621094H15.5474V2.97108H11.0717V7.3193H14.6301V9.67112H11.0717V14.7247H15.5474V17.0747H8.48047V0.621094Z" fill="white"/>
<path d="M24.7841 17.0747H22.1689L20.4728 4.30999H20.4248L18.7286 17.0747H16.3496L18.8468 0.621094H22.2815L24.7841 17.0747Z" fill="white"/>
<path d="M26.0312 0.621094H33.0982V2.97108H28.6225V7.3193H32.179V9.67112H28.6225V14.7247H33.0982V17.0747H26.0312V0.621094Z" fill="white"/>
<path d="M34.582 0.621094H38.4228C39.7578 0.621094 40.7311 0.928041 41.3426 1.54194C41.9541 2.15583 42.2617 3.10798 42.2654 4.39839V5.40763C42.2654 7.11671 41.7 8.19839 40.5693 8.65267V8.69872C40.8636 8.77876 41.1361 8.92398 41.3665 9.12358C41.5969 9.32317 41.7792 9.57202 41.9 9.85161C42.1608 10.4324 42.2906 11.2077 42.2894 12.1777V15.0691C42.2851 15.4496 42.3005 15.8301 42.3355 16.2091C42.3688 16.5057 42.4486 16.7953 42.5718 17.0673H39.9325C39.8453 16.8238 39.7834 16.5721 39.748 16.3159C39.709 15.8941 39.6936 15.4705 39.7018 15.047V12.0451C39.7018 11.2924 39.5788 10.7675 39.3327 10.4704C39.0866 10.1733 38.6664 10.0241 38.0721 10.0229H37.177V17.0747H34.5931L34.582 0.621094ZM38.1164 7.6729C38.6332 7.6729 39.0226 7.5403 39.281 7.27325C39.5394 7.00621 39.6704 6.56052 39.6704 5.93251V4.66359C39.6704 4.06811 39.5646 3.63839 39.353 3.37441C39.1414 3.11044 38.8073 2.97722 38.3508 2.97477H37.1733V7.67658L38.1164 7.6729Z" fill="white"/>
</g>
<defs>
<clipPath id="clip0">
<rect width="42.4236" height="24.2421" fill="white" transform="translate(0.169922 0.621094)"/>
</clipPath>
</defs>
</svg>
