<svg width="70" height="40" viewBox="0 0 70 40" fill="none" xmlns="http://www.w3.org/2000/svg">
<path d="M0.30459 32.2937C0.304539 32.2396 0.325419 32.1876 0.362871 32.1485C0.400323 32.1095 0.451443 32.0863 0.505574 32.084H3.00884C4.04589 32.084 5.04047 32.4951 5.77377 33.2268C6.50708 33.9585 6.91905 34.951 6.91905 35.9858C6.91905 37.0207 6.50708 38.0131 5.77377 38.7449C5.04047 39.4766 4.04589 39.8877 3.00884 39.8877H0.505574C0.450913 39.8853 0.399336 39.8618 0.361802 39.822C0.324268 39.7823 0.303746 39.7296 0.30459 39.675V32.2937ZM2.90835 39.1158C4.73554 39.1158 6.02676 37.8122 6.02676 35.9737C6.04608 35.5589 5.9788 35.1447 5.82921 34.7573C5.67961 34.3699 5.45096 34.0177 5.15775 33.7231C4.86455 33.4285 4.51318 33.198 4.12596 33.0461C3.73873 32.8942 3.3241 32.8242 2.90835 32.8407H1.15728V39.1158H2.90835Z" fill="#30302F"/>
<path d="M17.2335 32.2937C17.2335 32.2381 17.2557 32.1847 17.2951 32.1454C17.3345 32.1061 17.3879 32.084 17.4437 32.084H21.8472C21.9029 32.084 21.9564 32.1061 21.9958 32.1454C22.0352 32.1847 22.0573 32.2381 22.0573 32.2937V32.6188C22.0573 32.6744 22.0352 32.7278 21.9958 32.7671C21.9564 32.8064 21.9029 32.8285 21.8472 32.8285H18.0923V35.5634H21.2991C21.3546 35.5649 21.4075 35.5874 21.4471 35.6263C21.4867 35.6653 21.5099 35.7177 21.5122 35.7731V36.0983C21.5122 36.1261 21.5067 36.1536 21.4959 36.1792C21.4852 36.2049 21.4694 36.2281 21.4496 36.2476C21.4298 36.2671 21.4063 36.2825 21.3804 36.2929C21.3546 36.3032 21.3269 36.3083 21.2991 36.3079H18.0923V39.1523H21.8472C21.8751 39.1523 21.9026 39.1578 21.9283 39.1685C21.954 39.1793 21.9773 39.195 21.9969 39.2148C22.0164 39.2346 22.0319 39.258 22.0422 39.2838C22.0526 39.3096 22.0577 39.3372 22.0573 39.365V39.6871C22.0577 39.7149 22.0526 39.7425 22.0422 39.7683C22.0319 39.7941 22.0164 39.8175 21.9969 39.8373C21.9773 39.8571 21.954 39.8729 21.9283 39.8836C21.9026 39.8943 21.8751 39.8998 21.8472 39.8998H17.4437C17.4158 39.8998 17.3882 39.8943 17.3625 39.8836C17.3369 39.8729 17.3136 39.8571 17.294 39.8373C17.2744 39.8175 17.259 39.7941 17.2487 39.7683C17.2383 39.7425 17.2331 39.7149 17.2335 39.6871V32.2937Z" fill="#30302F"/>
<path d="M31.0624 32.1091C31.0648 32.0545 31.0883 32.0031 31.1282 31.9656C31.168 31.9282 31.2208 31.9077 31.2756 31.9085H31.443C31.4782 31.9053 31.5136 31.9118 31.5453 31.9274C31.577 31.9429 31.6038 31.9669 31.6227 31.9967L36.5927 38.1746H36.6171V32.2306C36.6171 32.175 36.6392 32.1217 36.6786 32.0824C36.718 32.0431 36.7715 32.021 36.8272 32.021H37.22C37.2754 32.0232 37.3279 32.0459 37.3673 32.0846C37.4067 32.1234 37.4302 32.1755 37.4332 32.2306V39.7335C37.4308 39.788 37.4072 39.8395 37.3674 39.877C37.3276 39.9144 37.2747 39.9349 37.22 39.9341H37.1287C37.094 39.9371 37.0591 39.9304 37.0279 39.9149C36.9967 39.8993 36.9705 39.8755 36.952 39.8459L31.8938 33.5616V39.6393C31.8938 39.6957 31.8713 39.7498 31.8313 39.7897C31.7913 39.8296 31.7371 39.852 31.6806 39.852H31.2847C31.2286 39.8505 31.1753 39.8276 31.1357 39.788C31.096 39.7484 31.0731 39.6952 31.0715 39.6393L31.0624 32.1091Z" fill="#30302F"/>
<path d="M50.0623 32.2937C50.0645 32.2388 50.0874 32.1867 50.1263 32.1479C50.1652 32.109 50.2174 32.0862 50.2724 32.084H50.72C50.7756 32.0855 50.8285 32.108 50.8681 32.1469C50.9076 32.1858 50.9309 32.2383 50.9332 32.2937V39.675C50.9317 39.7309 50.9087 39.7841 50.8691 39.8237C50.8294 39.8632 50.7761 39.8861 50.72 39.8877H50.2724C50.2169 39.8854 50.1643 39.8622 50.1253 39.8227C50.0863 39.7832 50.0638 39.7304 50.0623 39.675V32.2937Z" fill="#30302F"/>
<path d="M62.9775 32.1264C62.9909 32.0825 63.0178 32.0439 63.0544 32.0161C63.091 31.9882 63.1355 31.9726 63.1815 31.9714H63.3581C63.3983 31.9719 63.4375 31.9836 63.4714 32.005C63.5052 32.0265 63.5325 32.057 63.55 32.093L65.7609 38.2375H65.8157L67.984 32.1051C68.0004 32.0689 68.027 32.0382 68.0604 32.0166C68.0939 31.995 68.1329 31.9836 68.1728 31.9836H68.3525C68.398 31.9854 68.4417 32.0013 68.4778 32.0291C68.5138 32.0569 68.5402 32.0951 68.5535 32.1386L69.9817 39.6202C70.0152 39.7751 69.9482 39.8876 69.7807 39.8876H69.3331C69.2877 39.8839 69.2445 39.8669 69.2087 39.8388C69.173 39.8107 69.1463 39.7727 69.1321 39.7295L68.1545 33.9892H68.1089L66.0533 39.8754C66.0354 39.9106 66.0086 39.9404 65.9754 39.9617C65.9422 39.9831 65.9039 39.9953 65.8644 39.997H65.6604C65.6212 39.9944 65.5833 39.9819 65.5502 39.9606C65.5172 39.9393 65.4901 39.91 65.4716 39.8754L63.3947 33.9892H63.349L62.3684 39.7295C62.3557 39.7736 62.3295 39.8125 62.2934 39.8409C62.2573 39.8692 62.2133 39.8855 62.1674 39.8876H61.7197C61.5523 39.8876 61.4853 39.7751 61.5188 39.6202L62.9775 32.1264Z" fill="#30302F"/>
<path d="M0.344116 0H11.6545V3.87753H4.61977V11.4412H10.1379V15.3187H4.61977V27.1488H0.3563L0.344116 0Z" fill="#30302F"/>
<path d="M13.7131 0H25.3737V3.87753H17.9888V11.0522H23.8602V14.9328H17.9888V23.2713H25.3737V27.1488H13.7131V0Z" fill="#30302F"/>
<path d="M40.6126 27.1488H36.2974L33.4987 6.08676H33.4195L30.6209 27.1488H26.6954L30.8158 0H36.4831L40.6126 27.1488Z" fill="#30302F"/>
<path d="M42.6711 0H54.3317V3.87753H46.9468V11.0522H52.8151V14.9328H46.9468V23.2713H54.3317V27.1488H42.6711V0Z" fill="#30302F"/>
<path d="M56.7802 0H63.1175C65.3203 0 66.9262 0.50647 67.9352 1.51941C68.9442 2.53235 69.4518 4.10342 69.4579 6.23262V7.89789C69.4579 10.7179 68.525 12.5027 66.6592 13.2523V13.3283C67.1449 13.4603 67.5945 13.7 67.9747 14.0293C68.3548 14.3586 68.6557 14.7692 68.8549 15.2306C69.2853 16.1888 69.4995 17.4682 69.4974 19.0686V23.8395C69.4904 24.4674 69.5158 25.0953 69.5736 25.7206C69.6286 26.21 69.7601 26.6879 69.9634 27.1367H65.6086C65.4647 26.7349 65.3626 26.3195 65.304 25.8968C65.2398 25.2009 65.2143 24.5019 65.2279 23.8031V18.8498C65.2279 17.6079 65.0249 16.7419 64.6188 16.2516C64.2128 15.7613 63.5195 15.5152 62.5389 15.5132H61.0619V27.1488H56.7984L56.7802 0ZM62.612 11.6356C63.4647 11.6356 64.1072 11.4169 64.5336 10.9762C64.9599 10.5356 65.1761 9.8002 65.1761 8.76396V6.67021C65.1761 5.68766 65.0015 4.9786 64.6523 4.54304C64.3031 4.10747 63.7519 3.88766 62.9987 3.88361H61.0558V11.6417L62.612 11.6356Z" fill="#30302F"/>
</svg>
